<svg width="512" height="512" viewBox="0 0 512 512" fill="none" xmlns="http://www.w3.org/2000/svg">
  <rect width="512" height="512" rx="104" fill="#064e3b"/>
  <g transform="translate(60, 160)">
    <!-- T -->
    <path fill="white" d="M0 0 h110 v30 h-40 v120 h-30 v-120 h-40 z" />
    <!-- S -->
    <path fill="white" d="M125 0 h95 v30 h-65 v24 h 65 v96 h -95 v -30 h 65 v -36 h -65 z" />
    <!-- R -->
    <path fill="white" d="M235 0 h80 c 25 0 40 15 40 35 v 30 c 0 20 -15 35 -40 35 h -40 v 50 h -30 v-150 z M265 30 v 40 h 50 v -40 z" />
    <!-- Arrow -->
    <path fill="white" d="M220 135 l 40 -40 l 30 30 l 90 -110 v 40 h 12 v -55 h -55 v 12 h 40 l -87 105 l -30 -30 l -40 40 z" />
  </g>
</svg>
